<?xml version="1.0" encoding="iso-8859-1"?>
<!-- Generator: Adobe Illustrator 19.0.0, SVG Export Plug-In . SVG Version: 6.00 Build 0)  -->
<svg version="1.1" id="Capa_1" xmlns="http://www.w3.org/2000/svg" xmlns:xlink="http://www.w3.org/1999/xlink" x="0px" y="0px"
	 viewBox="0 0 512 512" style="enable-background:new 0 0 512 512;" xml:space="preserve">
<g>
	<g>
		<path d="M496.931,149.956h-75.978V29.991h75.978c8.282,0,14.996-6.714,14.996-14.996C511.927,6.714,505.213,0,496.931,0h-90.974
			c-3.059,0-6.108,1.004-8.456,2.614c-0.021,0.015-0.044,0.027-0.066,0.042C374.21,18.695,26.13,259.057,6.55,272.578
			c-6.815,4.707-8.524,14.046-3.819,20.861c4.73,6.849,14.077,8.503,20.861,3.819l6.475-4.471v97.1H15.071
			c-8.282,0-14.996,6.714-14.996,14.996v92.122C0.075,505.286,6.79,512,15.071,512c0.721,0,1.429-0.051,2.122-0.149
			c24.453,0,453.132,0,479.737,0c8.282,0,14.996-6.714,14.996-14.996V164.952C511.927,156.67,505.213,149.956,496.931,149.956z
			 M330.979,84.994l59.983-41.42v106.382h-14.996c-8.282,0-14.996,6.714-14.996,14.996v44.987h-29.991V84.994z M241.005,147.124
			l59.983-41.42v104.235h-14.996c-8.282,0-14.996,6.714-14.996,14.996v44.987h-29.991V147.124z M151.032,209.255l59.983-41.42
			v102.086h-14.996c-8.282,0-14.996,6.714-14.996,14.996v44.987h-29.991V209.255z M60.058,272.076l60.982-42.111v99.939h-14.996
			c-8.282,0-14.996,6.714-14.996,14.996v44.987H60.058V272.076z M420.953,481.86H270.997V359.895h149.956V481.86z M481.935,481.86
			h-30.991V344.9c0-8.282-6.714-14.996-14.996-14.996H256.001c-8.282,0-14.996,6.714-14.996,14.996v136.96H30.067v-61.982h75.978
			c8.282,0,14.996-6.714,14.996-14.996v-44.987h74.978c8.282,0,14.996-6.714,14.996-14.996v-44.987h74.978
			c8.282,0,14.996-6.714,14.996-14.996V239.93h74.978c8.282,0,14.996-6.714,14.996-14.996v-44.987h90.974V481.86z"/>
	</g>
</g>
<g>
	<g>
		<path d="M315.984,389.887c-8.282,0-14.996,6.714-14.996,14.996v29.991c0,8.282,6.714,14.996,14.996,14.996
			c8.282,0,14.996-6.714,14.996-14.996v-29.991C330.979,396.601,324.265,389.887,315.984,389.887z"/>
	</g>
</g>
<g>
</g>
<g>
</g>
<g>
</g>
<g>
</g>
<g>
</g>
<g>
</g>
<g>
</g>
<g>
</g>
<g>
</g>
<g>
</g>
<g>
</g>
<g>
</g>
<g>
</g>
<g>
</g>
<g>
</g>
</svg>
