<svg id="Layer_5" enable-background="new 0 0 64 64" height="512" viewBox="0 0 64 64" width="512" xmlns="http://www.w3.org/2000/svg"><path d="m51 23h-1.555c.365-1.557.555-3.145.555-4.737v-9.263c1.654 0 3-1.346 3-3v-2c0-1.654-1.346-3-3-3h-32c-1.654 0-3 1.346-3 3v2c0 1.654 1.346 3 3 3v2h-3c-1.654 0-3 1.346-3 3s1.346 3 3 3h3v1.263c0 1.593.191 3.18.555 4.737h-1.555c-2.206 0-4 1.794-4 4s1.794 4 4 4c0 7.544 4.943 13.948 11.758 16.164l-1.62 9.91c-2.348.41-4.138 2.463-4.138 4.926v1h22v-1c0-2.463-1.79-4.516-4.138-4.926l-1.62-9.91c6.815-2.216 11.758-8.62 11.758-16.164 2.206 0 4-1.794 4-4s-1.794-4-4-4zm-34-17v-2c0-.552.449-1 1-1h32c.551 0 1 .448 1 1v2c0 .552-.449 1-1 1h-32c-.551 0-1-.448-1-1zm-3 8c0-.552.449-1 1-1h6c.551 0 1 .448 1 1s-.449 1-1 1h-6c-.551 0-1-.448-1-1zm6 4.263v-1.263h1c1.654 0 3-1.346 3-3s-1.346-3-3-3h-1v-2h28v9.263c0 1.595-.217 3.184-.621 4.737h-26.758c-.404-1.553-.621-3.141-.621-4.737zm22.829 42.737h-17.658c.413-1.164 1.525-2 2.829-2h.85 10.3.85c1.304 0 2.416.836 2.829 2zm-4.006-4h-9.647l1.525-9.327c1.068.211 2.17.327 3.299.327s2.231-.116 3.298-.327zm-4.823-11c-8.271 0-15-6.729-15-15h30c0 8.271-6.729 15-15 15zm17-17h-34c-1.103 0-2-.897-2-2s.897-2 2-2h34c1.103 0 2 .897 2 2s-.897 2-2 2z"/></svg>