<svg id="Layer_1" enable-background="new 0 0 512 512" height="512" viewBox="0 0 512 512" width="512" xmlns="http://www.w3.org/2000/svg"><g><path d="m497 289.2h-33.2v-113.533c0-8.284-6.716-15-15-15h-385.6c-8.284 0-15 6.716-15 15v113.533h-33.2c-8.284 0-15 6.716-15 15v192.8c0 8.284 6.716 15 15 15h64.267c8.284 0 15-6.716 15-15v-49.267h323.467v49.267c0 8.284 6.716 15 15 15h64.266c8.284 0 15-6.716 15-15v-192.8c0-8.284-6.716-15-15-15zm-418.8-98.533h355.6v98.533h-34.267v-49.267c0-8.284-6.716-15-15-15h-96.4c-8.284 0-15 6.716-15 15v49.267h-34.267v-49.267c0-8.284-6.716-15-15-15h-96.4c-8.284 0-15 6.716-15 15v49.267h-34.266zm291.333 64.266v34.267h-66.4v-34.267zm-160.666 0v34.267h-66.4v-34.267zm-144.6 227.067h-34.267v-34.267h34.267zm417.733 0h-34.267v-34.267h34.267zm0-64.266h-452v-34.267h452zm0-64.267h-452v-34.267h452z"/><path d="m175.667 78.2h11.987l-22.593 22.593c-4.29 4.29-5.573 10.742-3.252 16.347 2.322 5.605 7.792 9.26 13.858 9.26h48.2c8.284 0 15-6.716 15-15s-6.716-15-15-15h-11.987l22.593-22.593c4.29-4.29 5.573-10.742 3.252-16.347-2.322-5.605-7.792-9.26-13.858-9.26h-48.2c-8.284 0-15 6.716-15 15s6.715 15 15 15z"/><path d="m288.133 54.1h28.053l-38.66 38.66c-4.29 4.29-5.573 10.742-3.252 16.347 2.322 5.605 7.792 9.26 13.858 9.26h64.268c8.284 0 15-6.716 15-15s-6.716-15-15-15h-28.053l38.66-38.66c4.29-4.29 5.573-10.742 3.252-16.347-2.322-5.605-7.792-9.26-13.858-9.26h-64.267c-8.284 0-15 6.716-15 15s6.715 15 14.999 15z"/><path d="m416.667 30h44.12l-54.727 54.727c-4.29 4.29-5.573 10.742-3.252 16.347 2.322 5.605 7.792 9.26 13.858 9.26h80.334c8.284 0 15-6.716 15-15s-6.716-15-15-15h-44.12l54.727-54.727c4.29-4.29 5.573-10.742 3.252-16.347-2.322-5.605-7.792-9.26-13.859-9.26h-80.333c-8.284 0-15 6.716-15 15s6.715 15 15 15z"/></g></svg>